<mxfile host="app.diagrams.net" modified="2024-03-16T12:44:12.402Z" agent="Mozilla/5.0 (Windows NT 10.0; Win64; x64) AppleWebKit/537.36 (KHTML, like Gecko) Chrome/122.0.0.0 Safari/537.36" etag="zT_KhgnEPLScZAoSHAS2" version="24.0.6" type="device">
  <diagram name="Page-1" id="2cc2dc42-3aac-f2a9-1cec-7a8b7cbee084">
    <mxGraphModel dx="2533" dy="1487" grid="1" gridSize="10" guides="1" tooltips="1" connect="1" arrows="1" fold="1" page="1" pageScale="1" pageWidth="1169" pageHeight="827" background="none" math="0" shadow="0">
      <root>
        <mxCell id="0" />
        <mxCell id="1" parent="0" />
        <mxCell id="7026571954dc6520-1" value="" style="strokeWidth=1;shadow=0;dashed=0;align=center;html=1;shape=mxgraph.mockup.containers.browserWindow;rSize=0;strokeColor=#666666;mainText=,;recursiveResize=0;rounded=0;labelBackgroundColor=none;fontFamily=Verdana;fontSize=12" parent="1" vertex="1">
          <mxGeometry x="60" y="40" width="880" height="770" as="geometry" />
        </mxCell>
        <mxCell id="7026571954dc6520-2" value="Page 1" style="strokeWidth=1;shadow=0;dashed=0;align=center;html=1;shape=mxgraph.mockup.containers.anchor;fontSize=17;fontColor=#666666;align=left;" parent="7026571954dc6520-1" vertex="1">
          <mxGeometry x="60" y="12" width="110" height="26" as="geometry" />
        </mxCell>
        <mxCell id="7026571954dc6520-3" value="https://www.listatarefas.com" style="strokeWidth=1;shadow=0;dashed=0;align=center;html=1;shape=mxgraph.mockup.containers.anchor;rSize=0;fontSize=17;fontColor=#666666;align=left;" parent="7026571954dc6520-1" vertex="1">
          <mxGeometry x="130" y="60" width="250" height="26" as="geometry" />
        </mxCell>
        <mxCell id="C_4FqWznNhNhThYEc-Y1-2" value="" style="rounded=0;whiteSpace=wrap;html=1;" parent="7026571954dc6520-1" vertex="1">
          <mxGeometry x="120" y="150" width="640" height="590" as="geometry" />
        </mxCell>
        <mxCell id="C_4FqWznNhNhThYEc-Y1-8" value="Atividade 2" style="rounded=0;whiteSpace=wrap;html=1;fontSize=20;" parent="7026571954dc6520-1" vertex="1">
          <mxGeometry x="180" y="480" width="520" height="60" as="geometry" />
        </mxCell>
        <mxCell id="C_4FqWznNhNhThYEc-Y1-11" value="Atividade 3" style="rounded=0;whiteSpace=wrap;html=1;fontSize=20;fillColor=#eeeeee;strokeColor=#36393d;" parent="7026571954dc6520-1" vertex="1">
          <mxGeometry x="180" y="640" width="520" height="60" as="geometry" />
        </mxCell>
        <mxCell id="C_4FqWznNhNhThYEc-Y1-3" value="Atividade 1" style="rounded=0;whiteSpace=wrap;html=1;fontSize=20;" parent="7026571954dc6520-1" vertex="1">
          <mxGeometry x="180" y="390" width="520" height="60" as="geometry" />
        </mxCell>
        <mxCell id="C_4FqWznNhNhThYEc-Y1-26" value="+" style="rounded=0;whiteSpace=wrap;html=1;fontSize=20;" parent="7026571954dc6520-1" vertex="1">
          <mxGeometry x="180" y="300" width="50" height="60" as="geometry" />
        </mxCell>
        <mxCell id="7026571954dc6520-4" value="Lista de tarefas" style="text;html=1;points=[];align=center;verticalAlign=top;spacingTop=-4;fontSize=30;fontFamily=Verdana" parent="7026571954dc6520-1" vertex="1">
          <mxGeometry x="270" y="200" width="340" height="50" as="geometry" />
        </mxCell>
        <mxCell id="C_4FqWznNhNhThYEc-Y1-27" value="" style="rounded=0;whiteSpace=wrap;html=1;" parent="7026571954dc6520-1" vertex="1">
          <mxGeometry x="190" y="405" width="30" height="30" as="geometry" />
        </mxCell>
        <mxCell id="C_4FqWznNhNhThYEc-Y1-28" value="" style="rounded=0;whiteSpace=wrap;html=1;" parent="7026571954dc6520-1" vertex="1">
          <mxGeometry x="190" y="495" width="30" height="30" as="geometry" />
        </mxCell>
        <mxCell id="C_4FqWznNhNhThYEc-Y1-29" value="" style="rounded=0;whiteSpace=wrap;html=1;fillColor=#cdeb8b;strokeColor=#36393d;" parent="7026571954dc6520-1" vertex="1">
          <mxGeometry x="190" y="655" width="30" height="30" as="geometry" />
        </mxCell>
        <mxCell id="C_4FqWznNhNhThYEc-Y1-4" value="&lt;div&gt;&lt;span style=&quot;font-size: 12px; background-color: initial;&quot;&gt;Excluir&lt;/span&gt;&lt;br&gt;&lt;/div&gt;" style="rounded=0;whiteSpace=wrap;html=1;fontSize=20;align=center;fillColor=#ffcccc;strokeColor=#36393d;" parent="7026571954dc6520-1" vertex="1">
          <mxGeometry x="580" y="405" width="50" height="30" as="geometry" />
        </mxCell>
        <mxCell id="WMmj1u9hRXMdM6v7R6Er-1" value="&lt;div&gt;&lt;span style=&quot;font-size: 12px; background-color: initial;&quot;&gt;Excluir&lt;/span&gt;&lt;br&gt;&lt;/div&gt;" style="rounded=0;whiteSpace=wrap;html=1;fontSize=20;align=center;fillColor=#ffcccc;strokeColor=#36393d;" vertex="1" parent="7026571954dc6520-1">
          <mxGeometry x="580" y="495" width="50" height="30" as="geometry" />
        </mxCell>
        <mxCell id="WMmj1u9hRXMdM6v7R6Er-3" value="..." style="rounded=0;whiteSpace=wrap;html=1;fontSize=20;align=center;fillColor=#cdeb8b;strokeColor=#36393d;" vertex="1" parent="7026571954dc6520-1">
          <mxGeometry x="640" y="655" width="50" height="30" as="geometry" />
        </mxCell>
        <mxCell id="WMmj1u9hRXMdM6v7R6Er-4" value="..." style="rounded=0;whiteSpace=wrap;html=1;fontSize=20;align=center;fillColor=#cdeb8b;strokeColor=#36393d;" vertex="1" parent="7026571954dc6520-1">
          <mxGeometry x="640" y="495" width="50" height="30" as="geometry" />
        </mxCell>
        <mxCell id="WMmj1u9hRXMdM6v7R6Er-5" value="..." style="rounded=0;whiteSpace=wrap;html=1;fontSize=20;align=center;fillColor=#cdeb8b;strokeColor=#36393d;" vertex="1" parent="7026571954dc6520-1">
          <mxGeometry x="640" y="405" width="50" height="30" as="geometry" />
        </mxCell>
        <mxCell id="WMmj1u9hRXMdM6v7R6Er-49" value="&lt;font style=&quot;font-size: 18px;&quot;&gt;&lt;b&gt;Concluídas&lt;/b&gt;&lt;/font&gt;" style="text;html=1;align=center;verticalAlign=middle;resizable=0;points=[];autosize=1;strokeColor=none;fillColor=none;" vertex="1" parent="7026571954dc6520-1">
          <mxGeometry x="180" y="575" width="120" height="40" as="geometry" />
        </mxCell>
        <mxCell id="WMmj1u9hRXMdM6v7R6Er-26" value="" style="strokeWidth=1;shadow=0;dashed=0;align=center;html=1;shape=mxgraph.mockup.containers.browserWindow;rSize=0;strokeColor=#666666;mainText=,;recursiveResize=0;rounded=0;labelBackgroundColor=none;fontFamily=Verdana;fontSize=12" vertex="1" parent="1">
          <mxGeometry x="70" y="880" width="870" height="770" as="geometry" />
        </mxCell>
        <mxCell id="WMmj1u9hRXMdM6v7R6Er-27" value="Page 1" style="strokeWidth=1;shadow=0;dashed=0;align=center;html=1;shape=mxgraph.mockup.containers.anchor;fontSize=17;fontColor=#666666;align=left;" vertex="1" parent="WMmj1u9hRXMdM6v7R6Er-26">
          <mxGeometry x="60" y="12" width="110" height="26" as="geometry" />
        </mxCell>
        <mxCell id="WMmj1u9hRXMdM6v7R6Er-28" value="https://www.listatarefas.com" style="strokeWidth=1;shadow=0;dashed=0;align=center;html=1;shape=mxgraph.mockup.containers.anchor;rSize=0;fontSize=17;fontColor=#666666;align=left;" vertex="1" parent="WMmj1u9hRXMdM6v7R6Er-26">
          <mxGeometry x="130" y="60" width="250" height="26" as="geometry" />
        </mxCell>
        <mxCell id="WMmj1u9hRXMdM6v7R6Er-29" value="" style="rounded=0;whiteSpace=wrap;html=1;" vertex="1" parent="WMmj1u9hRXMdM6v7R6Er-26">
          <mxGeometry x="120" y="150" width="640" height="590" as="geometry" />
        </mxCell>
        <mxCell id="WMmj1u9hRXMdM6v7R6Er-32" value="Título da tarefa" style="rounded=0;whiteSpace=wrap;html=1;fontSize=20;align=left;" vertex="1" parent="WMmj1u9hRXMdM6v7R6Er-26">
          <mxGeometry x="180" y="280" width="370" height="60" as="geometry" />
        </mxCell>
        <mxCell id="WMmj1u9hRXMdM6v7R6Er-34" value="Criar tarefa" style="text;html=1;points=[];align=center;verticalAlign=top;spacingTop=-4;fontSize=30;fontFamily=Verdana" vertex="1" parent="WMmj1u9hRXMdM6v7R6Er-26">
          <mxGeometry x="270" y="200" width="340" height="50" as="geometry" />
        </mxCell>
        <mxCell id="WMmj1u9hRXMdM6v7R6Er-44" value="Descrição" style="rounded=0;whiteSpace=wrap;html=1;fontSize=20;align=left;" vertex="1" parent="WMmj1u9hRXMdM6v7R6Er-26">
          <mxGeometry x="180" y="370" width="520" height="60" as="geometry" />
        </mxCell>
        <mxCell id="WMmj1u9hRXMdM6v7R6Er-45" value="Prioridade" style="rounded=0;whiteSpace=wrap;html=1;fontSize=20;align=left;fillColor=#ffcc99;strokeColor=#36393d;" vertex="1" parent="WMmj1u9hRXMdM6v7R6Er-26">
          <mxGeometry x="570" y="280" width="130" height="60" as="geometry" />
        </mxCell>
        <mxCell id="WMmj1u9hRXMdM6v7R6Er-46" value="Data" style="rounded=0;whiteSpace=wrap;html=1;fontSize=20;align=left;" vertex="1" parent="WMmj1u9hRXMdM6v7R6Er-26">
          <mxGeometry x="180" y="460" width="520" height="60" as="geometry" />
        </mxCell>
        <mxCell id="WMmj1u9hRXMdM6v7R6Er-47" value="Tag" style="rounded=0;whiteSpace=wrap;html=1;fontSize=20;align=left;" vertex="1" parent="WMmj1u9hRXMdM6v7R6Er-26">
          <mxGeometry x="180" y="550" width="520" height="60" as="geometry" />
        </mxCell>
        <mxCell id="WMmj1u9hRXMdM6v7R6Er-48" value="Criar tarefa" style="rounded=0;whiteSpace=wrap;html=1;fontSize=20;fillColor=#cce5ff;strokeColor=#36393d;" vertex="1" parent="WMmj1u9hRXMdM6v7R6Er-26">
          <mxGeometry x="570" y="650" width="130" height="60" as="geometry" />
        </mxCell>
        <mxCell id="WMmj1u9hRXMdM6v7R6Er-50" value="" style="strokeWidth=1;shadow=0;dashed=0;align=center;html=1;shape=mxgraph.mockup.containers.browserWindow;rSize=0;strokeColor=#666666;mainText=,;recursiveResize=0;rounded=0;labelBackgroundColor=none;fontFamily=Verdana;fontSize=12" vertex="1" parent="1">
          <mxGeometry x="70" y="1700" width="870" height="770" as="geometry" />
        </mxCell>
        <mxCell id="WMmj1u9hRXMdM6v7R6Er-51" value="Page 1" style="strokeWidth=1;shadow=0;dashed=0;align=center;html=1;shape=mxgraph.mockup.containers.anchor;fontSize=17;fontColor=#666666;align=left;" vertex="1" parent="WMmj1u9hRXMdM6v7R6Er-50">
          <mxGeometry x="60" y="12" width="110" height="26" as="geometry" />
        </mxCell>
        <mxCell id="WMmj1u9hRXMdM6v7R6Er-52" value="https://www.listatarefas.com" style="strokeWidth=1;shadow=0;dashed=0;align=center;html=1;shape=mxgraph.mockup.containers.anchor;rSize=0;fontSize=17;fontColor=#666666;align=left;" vertex="1" parent="WMmj1u9hRXMdM6v7R6Er-50">
          <mxGeometry x="130" y="60" width="250" height="26" as="geometry" />
        </mxCell>
        <mxCell id="WMmj1u9hRXMdM6v7R6Er-53" value="" style="rounded=0;whiteSpace=wrap;html=1;" vertex="1" parent="WMmj1u9hRXMdM6v7R6Er-50">
          <mxGeometry x="120" y="150" width="640" height="590" as="geometry" />
        </mxCell>
        <mxCell id="WMmj1u9hRXMdM6v7R6Er-54" value="Título da tarefa" style="rounded=0;whiteSpace=wrap;html=1;fontSize=20;align=left;" vertex="1" parent="WMmj1u9hRXMdM6v7R6Er-50">
          <mxGeometry x="180" y="280" width="370" height="60" as="geometry" />
        </mxCell>
        <mxCell id="WMmj1u9hRXMdM6v7R6Er-55" value="Editar tarefa" style="text;html=1;points=[];align=center;verticalAlign=top;spacingTop=-4;fontSize=30;fontFamily=Verdana" vertex="1" parent="WMmj1u9hRXMdM6v7R6Er-50">
          <mxGeometry x="270" y="200" width="340" height="50" as="geometry" />
        </mxCell>
        <mxCell id="WMmj1u9hRXMdM6v7R6Er-56" value="Descrição" style="rounded=0;whiteSpace=wrap;html=1;fontSize=20;align=left;" vertex="1" parent="WMmj1u9hRXMdM6v7R6Er-50">
          <mxGeometry x="180" y="370" width="520" height="60" as="geometry" />
        </mxCell>
        <mxCell id="WMmj1u9hRXMdM6v7R6Er-57" value="Prioridade" style="rounded=0;whiteSpace=wrap;html=1;fontSize=20;align=left;fillColor=#ffcc99;strokeColor=#36393d;" vertex="1" parent="WMmj1u9hRXMdM6v7R6Er-50">
          <mxGeometry x="570" y="280" width="130" height="60" as="geometry" />
        </mxCell>
        <mxCell id="WMmj1u9hRXMdM6v7R6Er-58" value="Data" style="rounded=0;whiteSpace=wrap;html=1;fontSize=20;align=left;" vertex="1" parent="WMmj1u9hRXMdM6v7R6Er-50">
          <mxGeometry x="180" y="460" width="520" height="60" as="geometry" />
        </mxCell>
        <mxCell id="WMmj1u9hRXMdM6v7R6Er-59" value="Tag" style="rounded=0;whiteSpace=wrap;html=1;fontSize=20;align=left;" vertex="1" parent="WMmj1u9hRXMdM6v7R6Er-50">
          <mxGeometry x="180" y="550" width="520" height="60" as="geometry" />
        </mxCell>
        <mxCell id="WMmj1u9hRXMdM6v7R6Er-60" value="Editar tarefa" style="rounded=0;whiteSpace=wrap;html=1;fontSize=20;fillColor=#cce5ff;strokeColor=#36393d;" vertex="1" parent="WMmj1u9hRXMdM6v7R6Er-50">
          <mxGeometry x="570" y="650" width="130" height="60" as="geometry" />
        </mxCell>
      </root>
    </mxGraphModel>
  </diagram>
</mxfile>
